<?xml version="1.0" encoding="utf-8"?>
<!-- Generator: Adobe Illustrator 15.0.0, SVG Export Plug-In . SVG Version: 6.00 Build 0)  -->
<!DOCTYPE svg PUBLIC "-//W3C//DTD SVG 1.1//EN" "http://www.w3.org/Graphics/SVG/1.1/DTD/svg11.dtd">
<svg version="1.1" id="Layer_1" xmlns="http://www.w3.org/2000/svg" xmlns:xlink="http://www.w3.org/1999/xlink" x="0px" y="0px"
	 width="870.24px" height="595.28px" viewBox="0 0 870.24 595.28" enable-background="new 0 0 870.24 595.28" xml:space="preserve">
<path fill="#84AEAB" d="M664.506,156.406c-16.858,7.492-34.94,12.519-53.987,14.818c19.418-11.646,34.292-30.063,41.339-52.021
	c-18.175,10.775-38.278,18.602-59.699,22.83c-17.155-18.268-41.562-29.673-68.602-29.673c-51.892,0-93.991,42.062-93.991,93.954
	c0,7.381,0.854,14.54,2.448,21.439c-78.116-3.932-147.367-41.357-193.731-98.201c-8.049,13.873-12.723,30.026-12.723,47.255
	c0,32.585,16.617,61.35,41.84,78.227c-15.431-0.501-29.896-4.729-42.582-11.777c0,0.408,0,0.816,0,1.206
	c0,45.53,32.381,83.476,75.371,92.155c-7.863,2.113-16.172,3.282-24.74,3.282c-6.046,0-11.944-0.593-17.674-1.688
	c11.962,37.352,46.625,64.503,87.778,65.245c-32.159,25.26-72.701,40.244-116.71,40.244c-7.585,0-15.078-0.426-22.459-1.279
	c41.617,26.632,91.024,42.191,144.121,42.191c172.867,0,267.378-143.193,267.378-267.396c0-4.08-0.111-8.123-0.297-12.166
	C635.982,191.81,651.895,175.267,664.506,156.406z"/>
</svg>
